<svg enable-background="new 0 0 512 512" viewBox="0 0 512 512" xmlns="http://www.w3.org/2000/svg"><path d="m1.793 161.987v8.875 17.754 8.875 11.267 1.196 5.291 8.875 11.267 1.196 5.29 8.875 11.267 1.196 5.288.003 3.585 5.29 11.267 1.196 5.288.003 3.585 5.29 11.267 1.196 5.288.003 3.585 5.29 1.193 1.196 8.878 1.196 5.288.003c169.54 52.36 339.079-52.36 508.619 0v-.003-5.286-1.196-8.878-1.196-1.193-5.29-3.585-.003-5.288-1.196-11.267-5.29-3.585-.003-5.288-1.196-11.267-5.29-3.585-.004-5.288-1.196-11.267-8.875-5.29-1.196-11.268-8.875-5.291-1.196-11.267-8.875-17.754-8.875c-169.54-52.36-339.079 52.359-508.619 0z" fill="#ffb636"/><path d="m171.242 289.342h-36.121v-41.325h30.361c3.181 0 5.76 2.579 5.76 5.76z" fill="#e8e8e8"/><path d="m172.313 220.667h-31.481c.948-2.526 1.518-5.688 1.518-9.131 0-8.248-3.237-14.934-7.229-14.934s-7.229 6.686-7.229 14.934c0 3.443.57 6.605 1.518 9.131h-31.451c-2.445 0-4.177 2.389-3.416 4.713l3.651 11.157c.481 1.471 1.851 2.469 3.398 2.477l67.015.334c1.569.008 2.961-1.002 3.44-2.496l3.688-11.491c.745-2.321-.985-4.694-3.422-4.694z" fill="#e2a042"/><path d="m87.304 281.017c0-5.139-4.166-9.304-9.304-9.304-5.139 0-9.304 4.166-9.304 9.304 0 3.705 2.171 6.894 5.304 8.391v31.509c0 .787.638 1.425 1.425 1.425h5.15c.787 0 1.425-.638 1.425-1.425v-31.509c3.134-1.497 5.304-4.686 5.304-8.391z" fill="#e8e8e8"/><path d="m198.971 281.017c0-5.139-4.166-9.304-9.304-9.304-5.139 0-9.304 4.166-9.304 9.304 0 3.705 2.17 6.894 5.304 8.391v31.509c0 .787.638 1.425 1.425 1.425h5.15c.787 0 1.425-.638 1.425-1.425v-31.509c3.133-1.497 5.304-4.686 5.304-8.391z" fill="#e8e8e8"/><path d="m510.412 94.03v14.699 26.629 8.875 17.754c-169.54-52.36-339.079 52.36-508.619 0v-17.754-8.875-26.629-4.282c0-11.042 10.303-19.16 21.051-16.631 158.611 37.323 317.223-51.454 475.834-9.093 6.924 1.849 11.734 8.14 11.734 15.307zm-508.619 254.36v3.585 5.29 1.193 1.196 8.878 1.196 5.288.003 3.585 5.29 1.193 1.196 8.878 1.193.003 5.288.003 3.585 5.29 5.823c0 7.167 4.81 13.458 11.734 15.307 159.129 42.499 318.258-46.998 477.387-8.724 9.944 2.392 19.499-5.177 19.499-15.405v-2.293-3.585-.003-5.288-.003-1.193-8.878-1.196-1.193-5.29-3.585-.003-5.288-1.196-8.878-1.196-1.193-5.29-3.585c-169.541-52.358-339.08 52.362-508.62.002zm133.328-59.048v-41.325h-30.362c-3.181 0-5.759 2.578-5.759 5.759v35.566 14.94c0 9.975 8.086 18.06 18.061 18.06 9.975 0 18.06-8.086 18.06-18.06 0 9.975 8.086 18.06 18.061 18.06 9.975 0 18.06-8.086 18.06-18.06v-14.94zm6.559-67.825c-4.372.174-8.745.353-13.117.528v18.481c4.372-.153 8.745-.312 13.117-.464 0-6.182 0-12.364 0-18.545zm-35.013 19.599c4.372-.07 8.745-.172 13.117-.303 0-6.147 0-12.294 0-18.44-4.372.154-8.745.289-13.117.38zm56.909-20.308c-4.372.092-8.745.227-13.117.381v18.586c4.372-.132 8.745-.234 13.117-.304 0-6.221 0-12.442 0-18.663z" fill="#ff473e"/><path d="m127.793 289.342h7.328v14.94c0 5.949-2.89 11.211-7.328 14.501zm-21.465 29.441v-29.441h-7.328v14.94c0 5.949 2.89 11.21 7.328 14.501zm14.397-29.441h-7.328v32.627c1.183.244 2.408.373 3.664.373 1.255 0 2.481-.129 3.664-.373z" fill="#e2a042"/><path d="m147.459 289.342c0 6.814-5.524 12.338-12.338 12.338s-12.338-5.524-12.338-12.338 5.524-12.338 12.338-12.338 12.338 5.524 12.338 12.338zm-60.155 35.089v-3.086c0-2.568-2.082-4.649-4.649-4.649h-9.31c-2.568 0-4.649 2.082-4.649 4.649v3.086c0 2.568 2.082 4.649 4.649 4.649h9.31c2.568 0 4.649-2.081 4.649-4.649zm111.667 0v-3.086c0-2.568-2.082-4.649-4.649-4.649h-9.31c-2.568 0-4.649 2.082-4.649 4.649v3.086c0 2.568 2.082 4.649 4.649 4.649h9.31c2.567 0 4.649-2.081 4.649-4.649z" fill="#575a5b"/></svg>